#!OML:ASF \\Waltz\H\Terrain\Patient Classification 1\Animal2\Wednesday\Animal2.ASF
:FULLY-SPECIFIED
:DEGREES
1073
root 20.3575 18.0891 0.316662 -360.98 -58.5731 2.72988
lowerback 5.12289 -1.43942 2.44823
upperback -5.20801 -2.20273 -5.10738
thorax -8.7126 -1.47049 -6.55924
lowerneck 8.99814 12.2186 15.6717
upperneck -9.84546 16.1178 -27.8933
head -0.49458 8.8388 -11.4558
rclavicle 1.47101e-014 -2.22639e-014
rhumerus 44.2948 30.5272 -23.1553
rradius 57.6399
rwrist -29.8879
rhand -12.9476 18.6349
rfingers 7.12502
rthumb 13.1437 -10.9309
lclavicle 1.47101e-014 -2.22639e-014
lhumerus 12.8383 17.4238 1.60595
lradius 56.4159
lwrist 16.1011
lhand -49.3294 13.7685
lfingers 7.12502
lthumb -21.9454 42.5437
rfemur -15.6541 22.3719 13.8792
rtibia 37.0917
rfoot 4.77632 24.6475
rtoes 49.8819
lfemur -14.156 -12.8005 -11.1012
ltibia 20.7857
lfoot -7.63098 -21.0153
ltoes -31.2074
1074
root 20.3008 18.1012 0.205852 -361.017 -56.4961 3.10959
lowerback 4.96159 -1.46125 2.23203
upperback -5.11096 -2.27573 -5.42638
thorax -8.52964 -1.50114 -6.77423
lowerneck 8.78636 11.9791 16.146
upperneck -9.65447 15.8521 -28.3171
head -0.376283 8.69518 -11.6797
rclavicle -5.76476e-015 -3.49861e-014
rhumerus 44.2882 30.2817 -22.472
rradius 57.5823
rwrist -30.2002
rhand -13.1293 18.2643
rfingers 7.12502
rthumb 12.9685 -11.3127
lclavicle -5.76476e-015 -3.49861e-014
lhumerus 13.8584 17.8903 2.31926
lradius 55.9259
lwrist 15.9885
lhand -49.1172 13.0084
lfingers 7.12502
lthumb -21.7416 41.8074
rfemur -15.0722 22.2001 13.7418
rtibia 36.0941
rfoot 5.12574 24.6126
rtoes 51.3836
lfemur -14.8346 -13.1012 -11.0149
ltibia 20.812
lfoot -7.53877 -18.8322
ltoes -33.3735
1075
root 20.2475 18.0887 0.0957765 -360.585 -54.5149 3.00561
lowerback 4.78556 -1.51184 2.26637
upperback -5.06241 -2.35785 -5.65989
thorax -8.40085 -1.55039 -7.04107
lowerneck 8.64892 11.836 16.7012
upperneck -9.41245 15.7508 -28.7629
head -0.2105 8.63513 -11.9155
rclavicle 4.57205e-015 6.99722e-014
rhumerus 44.2801 30.045 -22.0019
rradius 57.4193
rwrist -30.1497
rhand -13.4279 17.8974
rfingers 7.12502
rthumb 12.6807 -11.6977
lclavicle 4.57205e-015 6.99722e-014
lhumerus 14.5136 17.9037 2.51744
lradius 55.6059
lwrist 16.335
lhand -48.9298 12.325
lfingers 7.12502
lthumb -21.5616 41.1447
rfemur -14.5068 21.6387 13.9531
rtibia 35.1179
rfoot 5.10473 25.0917
rtoes 52.0801
lfemur -15.6379 -12.751 -10.7602
ltibia 21.0432
lfoot -8.07252 -15.9837
ltoes -34.6208
1076
root 20.2016 18.0692 -0.0143193 -360.058 -52.565 2.76877
lowerback 4.70322 -1.62326 2.42583
upperback -5.00917 -2.50651 -5.84532
thorax -8.33703 -1.63896 -7.31941
lowerneck 8.49064 11.7455 16.7789
upperneck -9.14933 15.6668 -28.851
head -0.114642 8.57888 -11.9446
rclavicle 5.28767e-014 4.77083e-015
rhumerus 44.6587 29.9652 -21.2509
rradius 57.2855
rwrist -30.5798
rhand -13.8543 17.8027
rfingers 7.12502
rthumb 12.2696 -11.8174
lclavicle 5.28767e-014 4.77083e-015
lhumerus 14.8957 17.9169 2.51824
lradius 55.4182
lwrist 16.3264
lhand -49.1245 12.4336
lfingers 7.12502
lthumb -21.7486 41.2318
rfemur -13.9771 20.6608 14.3488
rtibia 34.1116
rfoot 4.52267 25.9005
rtoes 51.5572
lfemur -16.4448 -11.8252 -10.5135
ltibia 21.5089
lfoot -8.90322 -13.4448
ltoes -33.7125
1077
root 20.1528 18.0662 -0.121495 -359.749 -50.809 2.82205
lowerback 4.54007 -1.66942 2.46764
upperback -4.93385 -2.58499 -6.12635
thorax -8.19223 -1.68795 -7.64517
lowerneck 8.43361 11.6159 16.6208
upperneck -9.13932 15.4721 -28.6013
head -0.18966 8.47632 -11.847
rclavicle -4.79071e-014 1.90833e-014
rhumerus 45.1556 29.8745 -20.439
rradius 57.137
rwrist -31.3151
rhand -14.0112 17.9808
rfingers 7.12502
rthumb 12.1183 -11.6483
lclavicle -4.79071e-014 1.90833e-014
lhumerus 15.2999 17.9919 2.53903
lradius 55.1961
lwrist 15.9727
lhand -49.4227 12.8863
lfingers 7.12502
lthumb -22.0349 41.651
rfemur -13.4733 19.7226 14.5625
rtibia 33.0656
rfoot 3.57777 26.5043
rtoes 50.022
lfemur -17.1195 -10.4799 -10.4802
ltibia 22.0524
lfoot -9.49351 -11.4145
ltoes -31.1275
1078
root 20.0991 18.0716 -0.221606 -359.674 -49.2323 3.15848
lowerback 4.29644 -1.60781 2.25117
upperback -4.85813 -2.53859 -6.41998
thorax -7.96692 -1.65796 -7.85086
lowerneck 8.47424 11.4586 16.5662
upperneck -9.30589 15.233 -28.3932
head -0.325775 8.36344 -11.8013
rclavicle 1.00983e-013 2.54444e-014
rhumerus 45.4416 29.6177 -19.7304
rradius 56.9593
rwrist -31.7827
rhand -14.209 18.7796
rfingers 7.12502
rthumb 11.9275 -10.8606
lclavicle 1.00983e-013 2.54444e-014
lhumerus 15.863 18.0422 2.75952
lradius 54.916
lwrist 15.9877
lhand -49.6177 12.5656
lfingers 7.12502
lthumb -22.2221 41.3082
rfemur -12.9333 18.8486 14.5469
rtibia 32.0337
rfoot 2.97583 26.8252
rtoes 50.0232
lfemur -17.5755 -9.122 -10.7046
ltibia 22.4619
lfoot -10.3174 -9.44719
ltoes -28.2746
1079
root 20.0458 18.0761 -0.320913 -359.362 -47.7264 3.12678
lowerback 4.13323 -1.57874 2.08445
upperback -4.80078 -2.50529 -6.43501
thorax -7.79542 -1.62483 -7.77462
lowerneck 8.60583 11.4121 16.2398
upperneck -9.52883 15.1042 -28.2743
head -0.481885 8.32197 -11.7405
rclavicle -4.37326e-014 6.36111e-015
rhumerus 45.9185 29.404 -18.728
rradius 56.9402
rwrist -32.2993
rhand -14.6606 19.307
rfingers 7.12502
rthumb 11.4921 -10.358
lclavicle -4.37326e-014 6.36111e-015
lhumerus 16.1373 18.1421 3.14288
lradius 54.6459
lwrist 15.7688
lhand -49.8408 12.2297
lfingers 7.12502
lthumb -22.4363 40.9465
rfemur -12.4341 17.9622 14.8382
rtibia 31.0895
rfoot 2.46839 26.9072
rtoes 51.2461
lfemur -17.8242 -8.80025 -10.5221
ltibia 22.647
lfoot -12.0253 -6.2519
ltoes -31.1866
1080
root 19.9928 18.0623 -0.422946 -359.028 -46.2755 2.93503
lowerback 4.1584 -1.61203 1.99327
upperback -4.755 -2.54808 -6.39469
thorax -7.75955 -1.63497 -7.67085
lowerneck 8.85947 11.4033 15.9579
upperneck -9.76719 15.0361 -28.2837
head -0.6322 8.32281 -11.7375
rclavicle -7.61345e-014 9.54166e-015
rhumerus 46.3813 29.2048 -18.0686
rradius 56.8685
rwrist -32.2972
rhand -14.6226 18.9495
rfingers 7.12502
rthumb 11.5287 -10.7135
lclavicle -7.61345e-014 9.54166e-015
lhumerus 16.0067 18.2236 3.27447
lradius 54.6471
lwrist 15.4165
lhand -49.9853 12.4738
lfingers 7.12502
lthumb -22.5749 41.1738
rfemur -11.9887 17.1403 15.3497
rtibia 30.3125
rfoot 1.31251 26.8873
rtoes 51.5485
lfemur -17.9385 -8.74043 -10.1186
ltibia 22.6605
lfoot -13.1595 -3.62768
ltoes -32.4865
1081
root 19.9399 18.0296 -0.528139 -358.938 -44.9916 3.0028
lowerback 4.26318 -1.55656 1.80269
upperback -4.67506 -2.49651 -6.55464
thorax -7.72636 -1.60166 -7.73997
lowerneck 8.88208 11.3224 16.0322
upperneck -9.90077 14.9129 -28.3664
head -0.686507 8.27206 -11.7996
rclavicle -2.90226e-014 -5.24792e-014
rhumerus 46.5067 28.8549 -17.9826
rradius 56.667
rwrist -32.028
rhand -14.5017 18.7989
rfingers 7.12502
rthumb 11.6453 -10.8575
lclavicle -2.90226e-014 -5.24792e-014
lhumerus 16.1126 18.331 3.36096
lradius 54.8021
lwrist 15.5329
lhand -50.3397 12.7282
lfingers 7.12502
lthumb -22.9152 41.3865
rfemur -11.6086 16.2953 15.7012
rtibia 29.7076
rfoot 0.137248 26.9969
rtoes 51.3126
lfemur -17.9555 -8.39441 -9.88796
ltibia 22.6329
lfoot -13.8031 -1.58307
ltoes -35.0043
1082
root 19.8867 17.9954 -0.634106 -358.724 -43.7759 2.9506
lowerback 4.38498 -1.46091 1.64847
upperback -4.64602 -2.38807 -6.67699
thorax -7.74919 -1.54329 -7.79644
lowerneck 8.75129 11.2929 16.1494
upperneck -9.85211 14.8911 -28.3802
head -0.643512 8.25172 -11.8125
rclavicle 6.50026e-014 -5.24792e-014
rhumerus 46.5974 28.5907 -17.9087
rradius 56.5473
rwrist -31.9849
rhand -14.6811 18.7909
rfingers 7.12502
rthumb 11.4723 -10.8751
lclavicle 6.50026e-014 -5.24792e-014
lhumerus 16.3335 18.4585 3.59588
lradius 54.8856
lwrist 15.6607
lhand -50.4415 12.8583
lfingers 7.12502
lthumb -23.0128 41.5044
rfemur -11.3848 15.2593 16.1942
rtibia 29.3352
rfoot -1.15436 27.1099
rtoes 50.6001
lfemur -17.9345 -8.30034 -9.43137
ltibia 22.5569
lfoot -14.0018 -0.31811
ltoes -37.0051
1083
root 19.8334 17.9599 -0.735234 -358.478 -42.5253 2.84186
lowerback 4.64777 -1.44447 1.48779
upperback -4.75261 -2.3922 -6.71239
thorax -8.01414 -1.54598 -7.74192
lowerneck 8.85023 11.2901 16.0875
upperneck -9.79134 14.9114 -28.2562
head -0.658123 8.26522 -11.7627
rclavicle 7.63333e-014 7.95139e-015
rhumerus 46.7337 28.5497 -18.0028
rradius 56.4423
rwrist -31.7569
rhand -14.826 18.6034
rfingers 7.12502
rthumb 11.3325 -11.0704
lclavicle 7.63333e-014 7.95139e-015
lhumerus 16.2509 18.5839 3.71413
lradius 54.9924
lwrist 16.0408
lhand -49.8847 12.4642
lfingers 7.12502
lthumb -22.4785 41.176
rfemur -11.2697 14.0907 16.7937
rtibia 29.1706
rfoot -2.46852 27.1404
rtoes 50.181
lfemur -17.8731 -8.67524 -8.81326
ltibia 22.4403
lfoot -13.9876 0.231471
ltoes -37.2231
1084
root 19.7828 17.9246 -0.835526 -358.341 -41.4024 2.92575
lowerback 4.94283 -1.42009 1.23951
upperback -4.8676 -2.40366 -6.82139
thorax -8.30957 -1.55147 -7.71765
lowerneck 8.96005 11.2535 15.997
upperneck -9.87622 14.8552 -28.1005
head -0.737767 8.2452 -11.7122
rclavicle 2.127e-014 -1.74931e-014
rhumerus 46.7534 28.4101 -18.407
rradius 56.3386
rwrist -31.4056
rhand -15.0572 18.4822
rfingers 7.12502
rthumb 11.1096 -11.2038
lclavicle 2.127e-014 -1.74931e-014
lhumerus 16.0831 18.6665 3.59991
lradius 55.2106
lwrist 16.4666
lhand -49.4097 12.2075
lfingers 7.12502
lthumb -22.0224 40.9737
rfemur -11.336 13.1066 17.1847
rtibia 29.1346
rfoot -3.96803 27.0716
rtoes 49.7905
lfemur -17.8008 -9.02428 -8.32511
ltibia 22.3509
lfoot -13.9656 0.475226
ltoes -36.8811
1085
root 19.7321 17.8916 -0.936791 -358.139 -40.524 2.96466
lowerback 5.20246 -1.2989 0.986748
upperback -4.97571 -2.28344 -6.90974
thorax -8.55636 -1.48859 -7.68587
lowerneck 8.96111 11.2622 16.0256
upperneck -9.93313 14.8667 -28.1089
head -0.747569 8.25458 -11.7215
rclavicle -2.10712e-014 2.06736e-014
rhumerus 46.7596 28.2085 -18.8255
rradius 56.2346
rwrist -31.1899
rhand -15.3368 18.3889
rfingers 7.12502
rthumb 10.8399 -11.3114
lclavicle -2.10712e-014 2.06736e-014
lhumerus 15.9104 18.5715 3.51646
lradius 55.3872
lwrist 16.0403
lhand -49.3906 12.7317
lfingers 7.12502
lthumb -22.0041 41.5
rfemur -11.5802 12.4664 17.5694
rtibia 29.268
rfoot -6.36484 26.7884
rtoes 48.4975
lfemur -17.642 -8.93307 -7.81155
ltibia 22.2273
lfoot -13.9542 0.279306
ltoes -36.7353
